<svg xmlns="http://www.w3.org/2000/svg" xmlns:xlink="http://www.w3.org/1999/xlink" width="80" zoomAndPan="magnify" viewBox="0 0 60 60" height="80" preserveAspectRatio="xMidYMid meet" version="1.0"><path fill="#25475c" d="M 30 1.378906 C 14.21875 1.378906 1.378906 14.21875 1.378906 30 C 1.378906 45.78125 14.21875 58.621094 30 58.621094 C 45.78125 58.621094 58.621094 45.78125 58.621094 30 C 58.621094 14.21875 45.78125 1.378906 30 1.378906 Z M 30 60 C 13.457031 60 0 46.542969 0 30 C 0 13.457031 13.457031 0 30 0 C 46.542969 0 60 13.457031 60 30 C 60 46.542969 46.542969 60 30 60 " fill-opacity="1" fill-rule="nonzero"/><path fill="#25475c" d="M 30.21875 33.648438 C 30.632812 33.203125 31.082031 32.789062 31.5625 32.414062 C 31.566406 32.40625 31.566406 32.394531 31.566406 32.386719 C 31.570312 32.390625 31.574219 32.398438 31.582031 32.402344 C 33.632812 30.792969 36.203125 29.835938 39 29.835938 C 40.347656 29.835938 41.636719 30.058594 42.84375 30.46875 C 42.585938 29.367188 42.25 28.277344 41.875 27.195312 C 40.582031 23.464844 38.824219 19.953125 36.757812 16.59375 C 36.640625 16.398438 36.523438 16.203125 36.363281 15.9375 C 36.640625 19.394531 35.648438 20.867188 34.328125 22.152344 C 34.3125 22.042969 34.3125 21.953125 34.296875 21.863281 C 34.121094 20.792969 34.050781 19.6875 33.742188 18.660156 C 32.324219 13.941406 29.40625 10.34375 25.335938 7.640625 C 25.148438 7.515625 24.957031 7.414062 24.746094 7.285156 C 25.042969 8.195312 25.328125 9.03125 25.59375 9.882812 C 26.292969 12.132812 25.964844 14.226562 24.578125 16.144531 C 23.992188 16.960938 23.398438 17.773438 22.832031 18.601562 C 22.261719 19.445312 21.632812 20.257812 21.183594 21.164062 C 20.0625 23.421875 19.800781 25.863281 19.855469 28.355469 C 19.859375 28.484375 19.855469 28.613281 19.855469 28.746094 C 19.335938 27.601562 18.863281 26.453125 17.867188 25.613281 C 16.910156 24.808594 15.894531 24.101562 14.753906 23.464844 C 14.878906 23.933594 15 24.320312 15.089844 24.71875 C 15.546875 26.742188 15.335938 28.617188 13.890625 30.246094 C 13.269531 30.941406 12.726562 31.710938 12.179688 32.472656 C 10.449219 34.871094 9.832031 37.539062 10.359375 40.449219 C 10.769531 42.726562 12.078125 44.402344 13.980469 45.648438 C 15.925781 46.921875 18.097656 47.582031 20.367188 47.976562 C 21 48.089844 21.640625 48.152344 22.382812 48.253906 C 21.949219 47.96875 21.59375 47.773438 21.292969 47.519531 C 20.980469 47.257812 20.6875 46.957031 20.441406 46.632812 C 18.648438 44.246094 18.453125 41.128906 20.511719 38.816406 C 21.328125 37.898438 22.164062 37.003906 23.058594 36.164062 C 24.828125 34.480469 25.773438 32.457031 25.792969 30.011719 C 25.804688 29.398438 25.792969 28.78125 25.792969 28.082031 C 27.855469 29.582031 29.519531 31.289062 30.21875 33.648438 " fill-opacity="1" fill-rule="nonzero"/><path fill="#4377c3" d="M 41.144531 40.546875 C 41.109375 40.675781 41.070312 40.800781 41.03125 40.921875 L 40.613281 42.164062 L 41.6875 42.164062 L 41.265625 40.929688 C 41.21875 40.796875 41.179688 40.667969 41.144531 40.546875 " fill-opacity="1" fill-rule="nonzero"/><path fill="#4377c3" d="M 43.839844 44.550781 L 43.839844 39.246094 L 44.796875 39.246094 L 44.796875 43.699219 L 46.929688 43.699219 L 46.929688 44.550781 Z M 42.457031 44.550781 L 42.066406 43.398438 L 41.921875 42.980469 L 40.375 42.980469 L 40.234375 43.398438 L 40.113281 43.773438 L 39.855469 44.550781 L 38.859375 44.550781 L 39.25 43.398438 L 40.664062 39.246094 L 41.660156 39.246094 L 42.171875 40.734375 L 43.078125 43.398438 L 43.472656 44.550781 Z M 37.429688 43.773438 C 37.789062 43.773438 38.167969 43.699219 38.414062 43.585938 L 38.582031 43.503906 L 38.796875 44.316406 L 38.679688 44.371094 C 38.4375 44.492188 37.941406 44.621094 37.292969 44.621094 C 36.066406 44.621094 35.175781 44.003906 34.832031 42.972656 C 34.722656 42.664062 34.671875 42.3125 34.671875 41.941406 C 34.671875 41.503906 34.753906 41.101562 34.902344 40.746094 C 35.3125 39.773438 36.246094 39.164062 37.4375 39.164062 C 38.175781 39.164062 38.585938 39.347656 38.695312 39.402344 L 38.804688 39.460938 L 38.5625 40.285156 L 38.398438 40.207031 C 38.144531 40.082031 37.8125 40.011719 37.457031 40.011719 C 36.335938 40.011719 35.660156 40.722656 35.660156 41.917969 C 35.660156 43.082031 36.324219 43.773438 37.429688 43.773438 Z M 33.910156 44.550781 L 32.328125 42.195312 L 32.023438 42.546875 L 32.023438 44.550781 L 31.070312 44.550781 L 31.070312 39.246094 L 32.023438 39.246094 L 32.023438 41.359375 C 32.074219 41.296875 32.117188 41.238281 32.164062 41.179688 L 33.742188 39.246094 L 34.949219 39.246094 L 34.734375 39.5 L 33 41.527344 L 34.648438 43.960938 L 35.046875 44.550781 Z M 43.132812 31.886719 C 41.859375 31.363281 40.464844 31.070312 39 31.070312 C 36.429688 31.070312 34.070312 31.964844 32.214844 33.460938 C 31.871094 33.738281 31.546875 34.03125 31.246094 34.34375 C 30.988281 34.605469 30.75 34.875 30.523438 35.164062 C 29.058594 37.011719 28.175781 39.351562 28.175781 41.894531 C 28.175781 47.871094 33.023438 52.714844 39 52.714844 C 44.976562 52.714844 49.820312 47.871094 49.820312 41.894531 C 49.820312 37.378906 47.0625 33.511719 43.132812 31.886719 " fill-opacity="1" fill-rule="nonzero"/></svg>